<svg xmlns="http://www.w3.org/2000/svg" xmlns:xlink="http://www.w3.org/1999/xlink" width="512" height="512" viewBox="0 0 56 56" version="1.1"><!-- Generator: Sketch 51.3 (57544) - http://www.bohemiancoding.com/sketch --><title>052 - Split Personality</title><desc>Created with Sketch.</desc><defs/><g id="Page-1" stroke="none" stroke-width="1" fill="none" fill-rule="evenodd"><g id="052---Split-Personality" fill="#000000" fill-rule="nonzero"><circle id="Oval" cx="39" cy="25" r="1"/><circle id="Oval" cx="26" cy="9" r="1"/><path d="M31,2.22044605e-16 C24.372583,6.66133815e-16 19,5.372583 19,12 C19,18.627417 24.372583,24 31,24 C37.627417,24 43,18.627417 43,12 C42.9928352,5.37555305 37.624447,0.00716484761 31,2.22044605e-16 Z M23,9 C23,7.34314575 24.3431458,6 26,6 C27.6568542,6 29,7.34314575 29,9 C29,10.6568542 27.6568542,12 26,12 C24.3431458,12 23,10.6568542 23,9 Z M31,21 C27.6876624,20.9966926 25.0033074,18.3123376 25,15 C25,14.4477153 25.4477153,14 26,14 C26.5522847,14 27,14.4477153 27,15 C27,17.209139 28.790861,19 31,19 C33.209139,19 35,17.209139 35,15 C35,14.4477153 35.4477153,14 36,14 C36.5522847,14 37,14.4477153 37,15 C36.9966926,18.3123376 34.3123376,20.9966926 31,21 Z M36,12 C34.3431458,12 33,10.6568542 33,9 C33,7.34314575 34.3431458,6 36,6 C37.6568542,6 39,7.34314575 39,9 C39,9.79564947 38.6839295,10.5587112 38.1213203,11.1213203 C37.5587112,11.6839295 36.7956495,12 36,12 Z" id="Shape"/><circle id="Oval" cx="36" cy="9" r="1"/><path d="M49.636,15.194 C49.499,14.47 49.343,13.774 49.158,13.122 C48.268664,10.0883716 46.4129226,7.42818302 43.873,5.546 C43.603,5.335 43.335,5.136 43.073,4.938 C44.7098873,7.6706517 45.3349327,10.8914406 44.839,14.038 C46.4941074,14.1344223 48.1186548,14.5259121 49.636,15.194 Z" id="Shape"/><path d="M0.6,33.734 C0.860555417,33.9167929 1.13622025,34.0770398 1.424,34.213 C2.278,34.649 3.447,35.247 3.687,36.468 C3.83018406,37.2237094 3.73695159,38.0051861 3.42,38.706 C3.246,39.076 3.066,39.396 2.909,39.672 C2.86,39.758 2.809,39.854 2.759,39.941 C3.173,40.274 3.739,40.698 3.979,40.875 C4.19653158,41.03646 4.33924808,41.2792679 4.37449617,41.5478696 C4.40974425,41.8164714 4.33450751,42.0878809 4.166,42.3 C4.01745938,42.4932548 3.88817724,42.7005751 3.78,42.919 C3.849,42.959 3.918,42.999 3.988,43.038 C4.87185426,43.4188803 5.54685539,44.1646653 5.838,45.082 C5.98493295,45.7875986 5.95539225,46.5185593 5.752,47.21 C5.706,47.419 5.659,47.628 5.632,47.838 C5.57354163,48.4428017 5.65391662,49.0529676 5.867,49.622 C6.08879513,50.543134 6.99394191,51.1285326 7.925,50.953 C10.8394025,50.252886 13.7108654,49.3847693 16.525,48.353 C17.585,47.993 18.543,47.653 19.292,47.396 C19.966,47.161 20.473,46.984 20.74,46.896 C24.899,45.582 25.74,44.081 25.718,43.052 C25.7096042,42.6947344 25.8924452,42.3601283 26.1976484,42.1742246 C26.5028516,41.9883208 26.8840495,41.9793627 27.1976484,42.1507246 C27.5112474,42.3220864 27.7096043,42.6477344 27.718,43.005 C27.776,45.498 25.634,47.448 21.349,48.805 C21.097,48.887 20.605,49.059 19.949,49.286 L19.01,49.614 C20.663072,51.4415578 21.8699953,53.6274376 22.536,56 L45.218,55.937 C45.196,55.902 45.174,55.869 45.152,55.837 C44.8634115,55.4198081 44.604122,54.9830924 44.376,54.53 C43.8787683,53.5217667 43.4637532,52.4750326 43.135,51.4 C42.5282586,49.3533716 42.1072219,47.2562207 41.877,45.134 C41.747089,44.0316128 41.7179684,42.9196759 41.79,41.812 C35.0040077,40.7233749 30.0098821,34.8727505 30,28 C30.00614,27.3162264 30.0616174,26.6337872 30.166,25.958 C24.2446663,25.6146538 19.1851995,21.5706588 17.545504,15.8705291 C15.9058084,10.1703994 18.0431671,4.05617027 22.877,0.619 C21.428,0.851 20.026,1.119 18.74,1.38 C14.705,2.18 11.69,3.614 9.776,5.638 C8.19683866,7.32997827 6.97635163,9.32398467 6.188,11.5 C5.85614578,12.4680809 5.58396833,13.4556008 5.373,14.457 L5.273,14.882 C5.03223001,15.7907608 4.70437906,16.6741835 4.294,17.52 C4.105,17.94 3.917,18.36 3.754,18.788 C3.65929553,19.0047674 3.60669376,19.2375727 3.599,19.474 C3.643,19.798 4.025,20.148 4.429,20.519 C5.25473785,21.1017313 5.78760356,22.013548 5.89,23.019 C5.87135419,23.4934269 5.73897076,23.956426 5.504,24.369 C4.25068748,27.0044113 2.71502777,29.4960025 0.924,31.8 C0.162,32.731 0,33.1 0,33.249 C0.184871225,33.4285354 0.385699651,33.5908717 0.6,33.734 Z M7.225,15.334 L7.325,14.901 C7.51788461,13.9848189 7.76498589,13.0808957 8.065,12.194 C8.76017336,10.2694666 9.8374398,8.50543003 11.232,7.008 C12.7646052,5.53068316 14.6519016,4.47303948 16.712,3.937 C17.2405365,3.77573285 17.7997329,4.07346349 17.961,4.602 C18.1222671,5.13053651 17.8245365,5.68973285 17.296,5.851 C15.5688104,6.28816632 13.9819597,7.15938523 12.686,8.382 C11.4777696,9.68201592 10.5444558,11.2125962 9.942,12.882 C9.67206366,13.6908805 9.44869758,14.5145638 9.273,15.349 L9.173,15.786 C9.03710876,16.3119463 8.50619985,16.6332196 7.97723377,16.5096041 C7.4482677,16.3859885 7.114727,15.8626994 7.226,15.331 L7.225,15.334 Z M7,18 C7.55228475,18 8,18.4477153 8,19 C8,19.5522847 7.55228475,20 7,20 C6.44771525,20 6,19.5522847 6,19 C6,18.4477153 6.44771525,18 7,18 Z" id="Shape"/><circle id="Oval" cx="49" cy="25" r="1"/><path d="M44.405,16.021 C43.6668536,18.4586029 42.2780488,20.6488141 40.388,22.356 C41.6826628,23.034548 42.2978234,24.5489889 41.8430567,25.9381492 C41.38829,27.3273095 39.9966397,28.1847846 38.5513476,27.9663588 C37.1060555,27.7479331 36.0299478,26.517508 36.006,25.056 C34.7843102,25.5278971 33.5018789,25.8241794 32.197,25.936 C31.5853007,29.2512706 32.410077,32.6703521 34.4660134,35.3421158 C36.5219497,38.0138795 39.6156557,39.6870075 42.977,39.945 L42.988,39.945 L42.993,39.945 C43.326,39.973 43.66,39.996 44,39.996 C50.5427732,39.9934512 55.8761275,34.7473719 55.9866177,28.2055311 C56.097108,21.6636904 50.9439554,16.2404963 44.405,16.017 L44.405,16.021 Z M49,37 C48.4477153,37 48,36.5522847 48,36 C48,33.790861 46.209139,32 44,32 C41.790861,32 40,33.790861 40,36 C40,36.5522847 39.5522847,37 39,37 C38.4477153,37 38,36.5522847 38,36 C38,32.6862915 40.6862915,30 44,30 C47.3137085,30 50,32.6862915 50,36 C50,36.5522847 49.5522847,37 49,37 Z M49,28 C47.3431458,28 46,26.6568542 46,25 C46,23.3431458 47.3431458,22 49,22 C50.6568542,22 52,23.3431458 52,25 C52,26.6568542 50.6568542,28 49,28 Z" id="Shape"/></g></g></svg>
