<svg id="Layer_1" enable-background="new 0 0 512 512" height="512" viewBox="0 0 512 512" width="512" xmlns="http://www.w3.org/2000/svg"><g><path d="m121.5 0c-66.995 0-121.5 54.505-121.5 121.5s54.505 121.5 121.5 121.5 121.5-54.505 121.5-121.5-54.505-121.5-121.5-121.5zm31 77c8.262 0 15 6.738 15 15s-6.738 15-15 15-15-6.738-15-15 6.738-15 15-15zm-62 0c8.262 0 15 6.738 15 15s-6.738 15-15 15-15-6.738-15-15 6.738-15 15-15zm76.383 80.541c-10.257 15.003-27.231 23.96-45.405 23.96-18.37 0-35.446-9.108-45.678-24.364-4.615-6.88-2.778-16.198 4.102-20.813 6.881-4.615 16.199-2.778 20.813 4.102 4.652 6.935 12.414 11.075 20.764 11.075 8.261 0 15.977-4.072 20.64-10.892 4.675-6.838 14.008-8.594 20.849-3.917 6.837 4.676 8.59 14.01 3.915 20.849z"/><path d="m121.5 269c-66.995 0-121.5 54.505-121.5 121.5s54.505 121.5 121.5 121.5 121.5-54.505 121.5-121.5-54.505-121.5-121.5-121.5zm31 77c8.262 0 15 6.738 15 15s-6.738 15-15 15-15-6.738-15-15 6.738-15 15-15zm-62 0c8.262 0 15 6.738 15 15s-6.738 15-15 15-15-6.738-15-15 6.738-15 15-15zm72.465 101.589c-6.84 4.677-16.172 2.921-20.848-3.917-4.662-6.82-12.378-10.891-20.64-10.891-8.35 0-16.112 4.14-20.764 11.075-2.894 4.315-7.639 6.646-12.471 6.646-2.873 0-5.776-.824-8.342-2.544-6.88-4.614-8.716-13.933-4.102-20.813 10.232-15.256 27.309-24.364 45.678-24.364 18.174 0 35.148 8.957 45.405 23.96 4.677 6.838 2.923 16.173-3.916 20.848z"/><path d="m390.5 243c66.995 0 121.5-54.505 121.5-121.5s-54.505-121.5-121.5-121.5-121.5 54.505-121.5 121.5 54.505 121.5 121.5 121.5zm31-166c8.262 0 15 6.738 15 15s-6.738 15-15 15-15-6.738-15-15 6.738-15 15-15zm-62 0c8.262 0 15 6.738 15 15s-6.738 15-15 15-15-6.738-15-15 6.738-15 15-15zm-.502 64.001h63.004c8.284 0 15 6.716 15 15s-6.716 15-15 15h-63.004c-8.284 0-15-6.716-15-15s6.716-15 15-15z"/><path d="m390.5 269c-66.995 0-121.5 54.505-121.5 121.5s54.505 121.5 121.5 121.5 121.5-54.505 121.5-121.5-54.505-121.5-121.5-121.5zm-54.845 76.51c4.654-6.854 13.982-8.637 20.836-3.982l14.914 10.127c6.854 4.654 8.637 13.982 3.982 20.836-2.901 4.272-7.62 6.575-12.423 6.575-2.901 0-5.832-.839-8.413-2.592l-14.914-10.127c-6.853-4.655-8.636-13.984-3.982-20.837zm100.228 81.031c-10.258 15.003-27.231 23.96-45.405 23.96-18.37 0-35.446-9.108-45.678-24.365-4.615-6.88-2.778-16.198 4.102-20.813 6.881-4.614 16.198-2.779 20.813 4.103 4.65 6.935 12.412 11.075 20.763 11.075 8.262 0 15.978-4.072 20.64-10.892 4.676-6.838 14.009-8.593 20.849-3.917 6.838 4.676 8.591 14.01 3.916 20.849zm5.479-60.195-14.914 10.127c-2.581 1.752-5.513 2.592-8.413 2.592-4.803 0-9.521-2.302-12.423-6.575-4.654-6.854-2.871-16.182 3.982-20.836l14.914-10.127c6.855-4.654 16.183-2.871 20.836 3.982 4.655 6.854 2.872 16.183-3.982 20.837z"/></g></svg>