<svg width="26" height="22" viewBox="0 0 26 22" fill="none" xmlns="http://www.w3.org/2000/svg">
<path fill-rule="evenodd" clip-rule="evenodd" d="M13.9676 0.119971C13.7767 0.199174 13.6033 0.315255 13.4574 0.461565C13.3111 0.607505 13.195 0.780876 13.1158 0.971748C13.0366 1.16262 12.9958 1.36724 12.9958 1.57389C12.9958 1.78055 13.0366 1.98517 13.1158 2.17604C13.195 2.36691 13.3111 2.54028 13.4574 2.68622L20.203 9.42931H2.00126C1.58458 9.42931 1.18497 9.59484 0.890337 9.88947C0.595701 10.1841 0.430176 10.5837 0.430176 11.0004C0.430176 11.4171 0.595701 11.8167 0.890337 12.1113C1.18497 12.406 1.58458 12.5715 2.00126 12.5715H20.2031L13.4574 19.3146C13.1624 19.6096 12.9967 20.0097 12.9967 20.4269C12.9967 20.8441 13.1624 21.2443 13.4574 21.5393C13.7524 21.8343 14.1525 22 14.5697 22C14.9869 22 15.3871 21.8343 15.6821 21.5393L25.1086 12.1127C25.2549 11.9668 25.371 11.7934 25.4502 11.6026C25.5294 11.4117 25.5702 11.2071 25.5702 11.0004C25.5702 10.7938 25.5294 10.5891 25.4502 10.3983C25.371 10.2074 25.2549 10.034 25.1086 9.88808L15.6821 0.461565C15.5361 0.315255 15.3628 0.199174 15.1719 0.119971C14.981 0.0407677 14.7764 0 14.5697 0C14.3631 0 14.1585 0.0407677 13.9676 0.119971Z" fill="white"/>
</svg>
